<svg
  width="620"
  height="363"
  viewBox="0 0 620 363"
  fill="none"
  xmlns="http://www.w3.org/2000/svg"
>
    <path
      opacity="0.1"
      d="M149.286 352.857H170.714C187.764 352.857 204.115 346.084 216.171 334.028C228.227 321.972 235 305.621 235 288.571M235 288.571C235 305.621 241.773 321.972 253.829 334.028C265.885 346.084 282.236 352.857 299.286 352.857H320.714M235 288.571L235 74.2857M320.714 10H299.286C282.236 10 265.885 16.773 253.829 28.8289C241.773 40.8848 235 57.2361 235 74.2857M235 74.2857C235 57.2361 228.227 40.8848 216.171 28.8289C204.115 16.773 187.764 10 170.714 10H149.286M160 95.7143H111.786M52.8571 95.7143C41.4907 95.7143 30.5898 100.23 22.5526 108.267C14.5153 116.304 10 127.205 10 138.571M10 224.286C10 235.652 14.5153 246.553 22.5526 254.59C30.5898 262.628 41.4907 267.143 52.8571 267.143M160 267.143H111.786M299.286 267.143H390.357M567.143 267.143C578.509 267.143 589.41 262.628 597.447 254.59C605.485 246.553 610 235.652 610 224.286M610 138.571C610 127.205 605.485 116.304 597.447 108.267C589.41 100.23 578.509 95.7143 567.143 95.7143M299.286 95.7143H390.357M454.643 267.143L500.179 267.143M454.643 95.7143H500.179"
      stroke="url(#paint0_linear_696_758)"
      stroke-width="20"
      stroke-linecap="round"
      stroke-linejoin="round"
    />
    <defs>
      <linearGradient
        id="paint0_linear_696_758"
        x1="656.409"
        y1="124.286"
        x2="-36.4111"
        y2="124.286"
        gradientUnits="userSpaceOnUse"
      >
        <stop stop-color="#EE4D5D" />
        <stop offset="0.34" stop-color="#AC87EB" />
        <stop offset="0.67" stop-color="#4FABFF" />
        <stop offset="1" stop-color="#076EFF" />
      </linearGradient>
    </defs>
  </svg>
